<?xml version="1.0" encoding="UTF-8" standalone="no"?>
<!-- Created with Inkscape (http://www.inkscape.org/) -->

<svg
   width="29.628429mm"
   height="30.151167mm"
   viewBox="0 0 29.628429 30.151167"
   version="1.1"
   id="svg5"
   inkscape:version="1.2.2 (b0a8486541, 2022-12-01)"
   sodipodi:docname="NewBioToolsFavicon.svg"
   xml:space="preserve"
   xmlns:inkscape="http://www.inkscape.org/namespaces/inkscape"
   xmlns:sodipodi="http://sodipodi.sourceforge.net/DTD/sodipodi-0.dtd"
   xmlns="http://www.w3.org/2000/svg"
   xmlns:svg="http://www.w3.org/2000/svg"><sodipodi:namedview
     id="namedview7"
     pagecolor="#ffffff"
     bordercolor="#666666"
     borderopacity="1.0"
     inkscape:showpageshadow="2"
     inkscape:pageopacity="0.0"
     inkscape:pagecheckerboard="0"
     inkscape:deskcolor="#d1d1d1"
     inkscape:document-units="mm"
     showgrid="false"
     inkscape:zoom="2.1946698"
     inkscape:cx="-70.170009"
     inkscape:cy="83.611667"
     inkscape:window-width="1870"
     inkscape:window-height="1052"
     inkscape:window-x="0"
     inkscape:window-y="0"
     inkscape:window-maximized="1"
     inkscape:current-layer="layer1" /><defs
     id="defs2"><filter
       style="color-interpolation-filters:sRGB"
       inkscape:label="Drop Shadow"
       id="filter18412"
       x="-0.042751961"
       y="-0.062213366"
       width="1.1033172"
       height="1.150349"><feFlood
         flood-opacity="0.498039"
         flood-color="rgb(0,0,0)"
         result="flood"
         id="feFlood18402" /><feComposite
         in="flood"
         in2="SourceGraphic"
         operator="in"
         result="composite1"
         id="feComposite18404" /><feGaussianBlur
         in="composite1"
         stdDeviation="1"
         result="blur"
         id="feGaussianBlur18406" /><feOffset
         dx="1"
         dy="1"
         result="offset"
         id="feOffset18408" /><feComposite
         in="SourceGraphic"
         in2="offset"
         operator="over"
         result="composite2"
         id="feComposite18410" /></filter><style
       id="style25003">.cls-1{fill:#ee7601;}.cls-2{fill:#544f4c;}</style><linearGradient
       id="linearGradient5478"><stop
         id="stop5480"
         style="stop-color:#0ee9f5;stop-opacity:.40476"
         offset="0" /><stop
         id="stop5482"
         style="stop-color:#dde53a;stop-opacity:0"
         offset="1" /></linearGradient></defs><g
     inkscape:label="Layer 1"
     inkscape:groupmode="layer"
     id="layer1"
     transform="translate(-80.870678,-52.669459)"><rect
       style="fill:#005472;fill-opacity:0.992439;fill-rule:evenodd;stroke:none;stroke-width:0.289999;stroke-miterlimit:10;filter:url(#filter18412)"
       id="rect290"
       width="56.137775"
       height="38.57692"
       x="66.15155"
       y="55.069458"
       rx="4"
       ry="2"
       transform="matrix(0.47835803,0,0,0.67943351,50.374612,16.884064)" /><path
       id="path4"
       inkscape:connector-curvature="0"
       d="m 88.46242,58.355863 -0.240752,0.481495 2.527855,1.44449 c 0,1.203743 -0.481491,2.166732 -1.564859,2.768605 l -2.527859,-1.444489 -0.120428,0.240749 c 0.60188,1.805611 1.805615,3.009351 4.213093,3.009351 0.601868,0 2.407483,1.805611 3.370478,2.768606 l 1.925992,-1.925989 c -0.962996,-0.962989 -3.129739,-3.129723 -3.129739,-3.731594 0,-2.166735 -0.601868,-3.611224 -4.453833,-3.611224 z m 15.04677,0.601873 -2.40749,1.685233 -0.24075,0.962995 -6.981701,6.981696 -0.962996,-0.601867 -0.481491,0.481493 c 0,1.44449 -1.685239,2.166735 -2.407483,2.166735 l -3.972341,3.972345 c 0,1.203744 1.324111,2.527856 2.527858,2.527856 l 3.972342,-3.972345 c 0,-0.722245 0.722243,-2.407484 2.16673,-2.407484 l 0.481504,-0.481494 -0.60188,-0.962994 6.981708,-6.981697 0.96299,-0.240749 1.68524,-2.407479 z m -6.018714,8.185435 -1.925988,1.925988 c 1.444496,1.444489 3.370478,3.370473 3.370478,3.972345 0,2.166733 0.60187,3.611223 4.453844,3.611223 l 0.24075,-0.481496 -2.52786,-1.444488 c 0,-1.203743 0.4815,-2.166738 1.56486,-2.768605 l 2.52786,1.444488 0.12043,-0.240749 c -0.60187,-1.805612 -1.80561,-3.009352 -4.2131,-3.009352 -0.60186,0 -2.166734,-1.564865 -3.611224,-3.009354 z"
       style="fill:#c3c3c3;fill-opacity:1;stroke-width:0.120374" /></g></svg>
