<?xml version="1.0" encoding="utf-8"?>
<!-- Generator: Adobe Illustrator 23.1.1, SVG Export Plug-In . SVG Version: 6.00 Build 0)  -->
<svg version="1.1" id="Layer_1" xmlns="http://www.w3.org/2000/svg" xmlns:xlink="http://www.w3.org/1999/xlink" x="0px" y="0px"
	 viewBox="0 0 246.225 80" enable-background="new 0 0 246.225 80" xml:space="preserve">
<g>
	<g>
		<path fill="#0C5B7B" d="M112.644,47.52c0,10.012-7.268,17.742-16.065,17.742c-4.497,0-7.796-1.547-10.015-4.102v3.164H76.488
			V17.278h10.075v16.597c2.219-2.545,5.518-4.097,10.015-4.097C105.376,29.779,112.644,37.507,112.644,47.52z M102.567,47.52
			c0-5.043-3.361-8.192-8.002-8.192c-4.64,0-8.002,3.149-8.002,8.192c0,5.037,3.362,8.203,8.002,8.203
			C99.206,55.723,102.567,52.557,102.567,47.52z"/>
		<path fill="#0C5B7B" d="M117.36,21.713c0-3.284,2.76-6.042,6.049-6.042c3.295,0,6.055,2.758,6.055,6.042
			c0,3.293-2.76,6.045-6.055,6.045C120.12,27.758,117.36,25.006,117.36,21.713z M118.366,30.722h10.09v33.602h-10.09V30.722z"/>
		<path fill="#0C5B7B" d="M134.171,47.52c0-10.012,7.93-17.741,17.812-17.741c9.869,0,17.803,7.729,17.803,17.741
			c0,10.012-7.934,17.742-17.803,17.742C142.101,65.262,134.171,57.531,134.171,47.52z M159.712,47.52c0-4.77-3.365-7.93-7.729-7.93
			c-4.369,0-7.727,3.161-7.727,7.93c0,4.77,3.358,7.93,7.727,7.93C156.347,55.449,159.712,52.289,159.712,47.52z"/>
		<path fill="#0C5B7B" d="M175.52,15.269h10.08v49.056h-10.08V15.269z"/>
		<path fill="#0C5B7B" d="M191.987,21.713c0-3.284,2.758-6.042,6.055-6.042c3.293,0,6.053,2.758,6.053,6.042
			c0,3.293-2.76,6.045-6.053,6.045C194.745,27.758,191.987,25.006,191.987,21.713z M192.993,30.722h10.094v33.602h-10.094V30.722z"
			/>
		<path fill="#0C5B7B" d="M246.636,47.52c0,10.012-7.266,17.742-16.064,17.742c-4.496,0-7.791-1.547-10.01-4.102v3.164h-10.086
			V17.278h10.086v16.597c2.219-2.545,5.514-4.097,10.01-4.097C239.37,29.779,246.636,37.507,246.636,47.52z M236.561,47.52
			c0-5.043-3.367-8.192-8-8.192c-4.641,0-8,3.149-8,8.192c0,5.037,3.359,8.203,8,8.203C233.194,55.723,236.561,52.557,236.561,47.52
			z"/>
	</g>
	<g>
		<path fill="#3DB2B2" d="M52.093,60.527l-32.969,8.875c-1.158,0.314-2.396-0.16-3.059-1.172L3.874,49.504l-3.226,7.24
			c-0.487,1.1-0.21,2.383,0.682,3.191l21.491,19.352c0.897,0.805,2.204,0.941,3.245,0.344L51.115,65.17
			c1.041-0.602,1.576-1.809,1.325-2.984L52.093,60.527z"/>
		<path fill="#0C5B7B" d="M17.076,54.062c-1.222,0-2.307-0.791-2.691-1.957L7.203,29.993l-5.537,6.847
			c-0.519,0.653-0.572,1.567-0.113,2.267L17.97,64.309c0.453,0.703,1.305,1.033,2.111,0.814l29.045-7.818
			c0.812-0.221,1.385-0.932,1.429-1.764l0.074-1.479H17.076z"/>
		<path fill="#3DB2B2" d="M33.214,0.355L8.805,18.094c-0.649,0.47-0.923,1.306-0.673,2.068l9.326,28.701
			c0.25,0.762,0.953,1.279,1.76,1.279h30.171c0.804,0,1.516-0.518,1.766-1.279l9.324-28.701c0.251-0.763-0.025-1.598-0.667-2.068
			L35.399,0.355C34.747-0.119,33.861-0.119,33.214,0.355"/>
	</g>
</g>
</svg>
