<svg xmlns="http://www.w3.org/2000/svg" xmlns:xlink="http://www.w3.org/1999/xlink" width="500" zoomAndPan="magnify" viewBox="0 0 375 374.999991" height="500" preserveAspectRatio="xMidYMid meet" version="1.0"><defs><g/><clipPath id="d7b89ca2cf"><path d="M 93.09375 39.039062 L 282 39.039062 L 282 222.789062 L 93.09375 222.789062 Z M 93.09375 39.039062 " clip-rule="nonzero"/></clipPath></defs><g clip-path="url(#d7b89ca2cf)"><path fill="#ffffff" d="M 116.726562 39.039062 L 114.367188 43.757812 L 139.136719 57.910156 C 139.136719 69.707031 134.417969 79.140625 123.804688 85.039062 L 99.035156 70.886719 L 97.855469 73.246094 C 103.75 90.9375 115.546875 102.734375 139.136719 102.734375 C 145.035156 102.734375 162.726562 120.425781 172.164062 129.863281 L 191.035156 110.988281 C 181.601562 101.554688 160.367188 80.320312 160.367188 74.425781 C 160.367188 53.191406 154.472656 39.039062 116.726562 39.039062 Z M 264.167969 44.9375 L 240.578125 61.449219 L 238.21875 70.886719 L 169.804688 139.300781 L 160.367188 133.402344 L 155.652344 138.121094 C 155.652344 152.273438 139.136719 159.351562 132.058594 159.351562 L 93.136719 198.277344 C 93.136719 210.070312 106.109375 223.046875 117.90625 223.046875 L 156.832031 184.121094 C 156.832031 177.042969 163.90625 160.53125 178.0625 160.53125 L 182.78125 155.8125 L 176.882812 146.375 L 245.296875 77.964844 L 254.730469 75.605469 L 271.246094 52.011719 Z M 205.191406 125.144531 L 186.320312 144.015625 C 200.472656 158.171875 219.347656 177.042969 219.347656 182.941406 C 219.347656 204.171875 225.242188 218.328125 262.988281 218.328125 L 265.347656 213.609375 L 240.578125 199.457031 C 240.578125 187.660156 245.296875 178.222656 255.910156 172.324219 L 280.683594 186.480469 L 281.863281 184.121094 C 275.964844 166.429688 264.167969 154.632812 240.578125 154.632812 C 234.679688 154.632812 219.347656 139.300781 205.191406 125.144531 Z M 205.191406 125.144531 " fill-opacity="1" fill-rule="nonzero"/></g><g fill="#ffffff" fill-opacity="1"><g transform="translate(20.345866, 318.675353)"><g><path d="M 27.765625 0.703125 C 23.578125 0.703125 20.582031 -1.800781 18.78125 -6.8125 L 18.78125 0 L 3.0625 0 L 3.0625 -75.453125 L 18.78125 -75.453125 L 18.78125 -60.875 C 21.21875 -63.375 24.066406 -64.625 27.328125 -64.625 C 32.273438 -64.625 35.828125 -63.148438 37.984375 -60.203125 C 40.140625 -57.265625 41.21875 -53.03125 41.21875 -47.5 L 41.21875 -16.671875 C 41.21875 -11.429688 40.109375 -7.222656 37.890625 -4.046875 C 35.679688 -0.878906 32.304688 0.703125 27.765625 0.703125 Z M 22.625 -11.171875 C 23.664062 -11.171875 24.40625 -11.503906 24.84375 -12.171875 C 25.28125 -12.847656 25.539062 -13.695312 25.625 -14.71875 C 25.71875 -15.738281 25.765625 -17.320312 25.765625 -19.46875 L 25.765625 -46.109375 C 25.765625 -48.378906 25.5625 -50.066406 25.15625 -51.171875 C 24.75 -52.273438 23.875 -52.828125 22.53125 -52.828125 C 21.070312 -52.828125 20.082031 -52.273438 19.5625 -51.171875 C 19.039062 -50.066406 18.78125 -48.4375 18.78125 -46.28125 L 18.78125 -19.46875 C 18.78125 -16.675781 19.007812 -14.59375 19.46875 -13.21875 C 19.9375 -11.851562 20.988281 -11.171875 22.625 -11.171875 Z M 22.625 -11.171875 "/></g></g></g><g fill="#ffffff" fill-opacity="1"><g transform="translate(67.765124, 318.675353)"><g><path d="M 2.96875 -68.203125 L 2.96875 -78.859375 L 18.25 -78.859375 L 18.25 -68.203125 Z M 2.96875 0 L 2.96875 -63.921875 L 18.25 -63.921875 L 18.25 0 Z M 2.96875 0 "/></g></g></g><g fill="#ffffff" fill-opacity="1"><g transform="translate(92.65397, 318.675353)"><g><path d="M 21.65625 0.703125 C 8.90625 0.703125 2.53125 -5.90625 2.53125 -19.125 L 2.53125 -44.796875 C 2.53125 -50.847656 4.234375 -55.664062 7.640625 -59.25 C 11.046875 -62.832031 15.71875 -64.625 21.65625 -64.625 C 27.59375 -64.625 32.265625 -62.832031 35.671875 -59.25 C 39.078125 -55.664062 40.78125 -50.847656 40.78125 -44.796875 L 40.78125 -19.125 C 40.78125 -5.90625 34.40625 0.703125 21.65625 0.703125 Z M 21.65625 -11.09375 C 22.875 -11.09375 23.773438 -11.523438 24.359375 -12.390625 C 24.941406 -13.265625 25.234375 -14.460938 25.234375 -15.984375 L 25.234375 -47.25 C 25.234375 -50.96875 24.039062 -52.828125 21.65625 -52.828125 C 19.269531 -52.828125 18.078125 -50.96875 18.078125 -47.25 L 18.078125 -15.984375 C 18.078125 -14.460938 18.367188 -13.265625 18.953125 -12.390625 C 19.535156 -11.523438 20.4375 -11.09375 21.65625 -11.09375 Z M 21.65625 -11.09375 "/></g></g></g><g fill="#ffffff" fill-opacity="1"><g transform="translate(139.723914, 318.675353)"><g><path d="M 2.359375 0 L 2.359375 -12.75 L 17.640625 -12.75 L 17.640625 0 Z M 2.359375 0 "/></g></g></g><g fill="#ffffff" fill-opacity="1"><g transform="translate(163.390181, 318.675353)"><g><path d="M 16.25 0.703125 C 12.226562 0.703125 9.457031 -0.140625 7.9375 -1.828125 C 6.425781 -3.515625 5.671875 -6.222656 5.671875 -9.953125 L 5.671875 -49.859375 L 1.390625 -49.859375 L 1.390625 -61.484375 L 5.671875 -61.484375 L 5.671875 -75.015625 L 20.515625 -75.015625 L 20.515625 -61.484375 L 24.890625 -61.484375 L 24.890625 -49.859375 L 20.515625 -49.859375 L 20.515625 -13.96875 C 20.515625 -12.863281 20.601562 -12.046875 20.78125 -11.515625 C 20.957031 -10.992188 21.425781 -10.734375 22.1875 -10.734375 C 22.757812 -10.734375 23.304688 -10.765625 23.828125 -10.828125 C 24.359375 -10.890625 24.710938 -10.921875 24.890625 -10.921875 L 24.890625 -0.4375 C 24.015625 -0.207031 22.742188 0.0351562 21.078125 0.296875 C 19.421875 0.566406 17.8125 0.703125 16.25 0.703125 Z M 16.25 0.703125 "/></g></g></g><g fill="#ffffff" fill-opacity="1"><g transform="translate(193.693308, 318.675353)"><g><path d="M 21.65625 0.703125 C 8.90625 0.703125 2.53125 -5.90625 2.53125 -19.125 L 2.53125 -44.796875 C 2.53125 -50.847656 4.234375 -55.664062 7.640625 -59.25 C 11.046875 -62.832031 15.71875 -64.625 21.65625 -64.625 C 27.59375 -64.625 32.265625 -62.832031 35.671875 -59.25 C 39.078125 -55.664062 40.78125 -50.847656 40.78125 -44.796875 L 40.78125 -19.125 C 40.78125 -5.90625 34.40625 0.703125 21.65625 0.703125 Z M 21.65625 -11.09375 C 22.875 -11.09375 23.773438 -11.523438 24.359375 -12.390625 C 24.941406 -13.265625 25.234375 -14.460938 25.234375 -15.984375 L 25.234375 -47.25 C 25.234375 -50.96875 24.039062 -52.828125 21.65625 -52.828125 C 19.269531 -52.828125 18.078125 -50.96875 18.078125 -47.25 L 18.078125 -15.984375 C 18.078125 -14.460938 18.367188 -13.265625 18.953125 -12.390625 C 19.535156 -11.523438 20.4375 -11.09375 21.65625 -11.09375 Z M 21.65625 -11.09375 "/></g></g></g><g fill="#ffffff" fill-opacity="1"><g transform="translate(240.763252, 318.675353)"><g><path d="M 21.65625 0.703125 C 8.90625 0.703125 2.53125 -5.90625 2.53125 -19.125 L 2.53125 -44.796875 C 2.53125 -50.847656 4.234375 -55.664062 7.640625 -59.25 C 11.046875 -62.832031 15.71875 -64.625 21.65625 -64.625 C 27.59375 -64.625 32.265625 -62.832031 35.671875 -59.25 C 39.078125 -55.664062 40.78125 -50.847656 40.78125 -44.796875 L 40.78125 -19.125 C 40.78125 -5.90625 34.40625 0.703125 21.65625 0.703125 Z M 21.65625 -11.09375 C 22.875 -11.09375 23.773438 -11.523438 24.359375 -12.390625 C 24.941406 -13.265625 25.234375 -14.460938 25.234375 -15.984375 L 25.234375 -47.25 C 25.234375 -50.96875 24.039062 -52.828125 21.65625 -52.828125 C 19.269531 -52.828125 18.078125 -50.96875 18.078125 -47.25 L 18.078125 -15.984375 C 18.078125 -14.460938 18.367188 -13.265625 18.953125 -12.390625 C 19.535156 -11.523438 20.4375 -11.09375 21.65625 -11.09375 Z M 21.65625 -11.09375 "/></g></g></g><g fill="#ffffff" fill-opacity="1"><g transform="translate(287.833196, 318.675353)"><g><path d="M 3.0625 0 L 3.0625 -75.453125 L 18.59375 -75.453125 L 18.59375 0 Z M 3.0625 0 "/></g></g></g><g fill="#ffffff" fill-opacity="1"><g transform="translate(313.158684, 318.675353)"><g><path d="M 20.609375 0.703125 C 7.972656 0.703125 1.65625 -5.703125 1.65625 -18.515625 L 1.75 -23.578125 L 17.03125 -23.578125 L 17.109375 -16.0625 C 17.109375 -14.550781 17.398438 -13.398438 17.984375 -12.609375 C 18.566406 -11.828125 19.53125 -11.4375 20.875 -11.4375 C 22.90625 -11.4375 23.921875 -13.097656 23.921875 -16.421875 C 23.921875 -18.859375 23.441406 -20.773438 22.484375 -22.171875 C 21.523438 -23.578125 20 -25.066406 17.90625 -26.640625 L 9.78125 -32.921875 C 6.988281 -35.078125 4.976562 -37.300781 3.75 -39.59375 C 2.53125 -41.894531 1.921875 -45.144531 1.921875 -49.34375 C 1.921875 -52.601562 2.78125 -55.378906 4.5 -57.671875 C 6.21875 -59.972656 8.5 -61.707031 11.34375 -62.875 C 14.195312 -64.039062 17.375 -64.625 20.875 -64.625 C 33.269531 -64.625 39.46875 -58.453125 39.46875 -46.109375 L 39.46875 -44.890625 L 23.671875 -44.890625 L 23.671875 -47.328125 C 23.671875 -48.847656 23.421875 -50.144531 22.921875 -51.21875 C 22.429688 -52.289062 21.601562 -52.828125 20.4375 -52.828125 C 19.382812 -52.828125 18.582031 -52.519531 18.03125 -51.90625 C 17.476562 -51.300781 17.203125 -50.472656 17.203125 -49.421875 C 17.203125 -47.097656 18.101562 -45.296875 19.90625 -44.015625 L 29.34375 -37.109375 C 32.71875 -34.609375 35.304688 -31.890625 37.109375 -28.953125 C 38.921875 -26.015625 39.828125 -22.300781 39.828125 -17.8125 C 39.828125 -11.875 38.132812 -7.300781 34.75 -4.09375 C 31.375 -0.894531 26.660156 0.703125 20.609375 0.703125 Z M 20.609375 0.703125 "/></g></g></g></svg>