<svg xmlns="http://www.w3.org/2000/svg" xmlns:xlink="http://www.w3.org/1999/xlink" width="500" zoomAndPan="magnify" viewBox="0 0 375 374.999991" height="500" preserveAspectRatio="xMidYMid meet" version="1.0"><defs><g/><clipPath id="138bf70482"><path d="M 127 79 L 256.785156 79 L 256.785156 210 L 127 210 Z M 127 79 " clip-rule="nonzero"/></clipPath></defs><g clip-path="url(#138bf70482)"><path fill="#ffffff" d="M 250.308594 103.75 L 239.898438 114.164062 C 239.898438 114.164062 232.957031 117.632812 226.019531 110.691406 C 219.074219 103.75 222.542969 96.808594 222.542969 96.808594 L 232.957031 86.398438 C 236.429688 82.925781 232.257812 79.746094 229.125 79.746094 C 213.75 79.746094 201.289062 92.207031 201.289062 107.582031 C 201.289062 109.742188 201.5625 111.835938 202.023438 113.855469 L 178.496094 137.386719 L 199.3125 158.207031 L 222.84375 134.679688 C 224.867188 135.140625 226.960938 135.414062 229.121094 135.414062 C 244.496094 135.414062 256.957031 122.953125 256.957031 107.582031 C 256.960938 104.429688 253.777344 100.28125 250.308594 103.75 Z M 178.085938 138.066406 L 131.816406 184.328125 C 126.144531 190.007812 126.144531 199.210938 131.816406 204.890625 C 137.5 210.5625 146.699219 210.5625 152.378906 204.890625 L 198.640625 158.625 Z M 142.1875 200.597656 C 139.078125 200.597656 136.5625 198.078125 136.5625 194.972656 C 136.5625 191.867188 139.082031 189.34375 142.1875 189.34375 C 145.296875 189.34375 147.8125 191.863281 147.8125 194.972656 C 147.8125 198.078125 145.296875 200.597656 142.1875 200.597656 Z M 142.1875 200.597656 " fill-opacity="1" fill-rule="nonzero"/></g><path fill="#ffffff" d="M 237.335938 206.066406 C 241.761719 210.492188 248.808594 210.699219 252.980469 206.527344 C 257.15625 202.351562 256.945312 195.308594 252.519531 190.882812 L 164.210938 102.574219 C 159.78125 98.144531 152.742188 97.941406 148.570312 102.113281 C 144.394531 106.289062 144.601562 113.332031 149.027344 117.757812 Z M 237.335938 206.066406 " fill-opacity="1" fill-rule="nonzero"/><path fill="#ffffff" d="M 201.710938 83.136719 C 201.710938 83.136719 178.933594 71.75 159.957031 90.726562 L 133.386719 117.296875 C 133.386719 117.296875 129.589844 113.503906 125.792969 117.296875 L 121.996094 121.09375 C 121.996094 121.09375 118.203125 124.890625 121.996094 128.683594 L 137.179688 143.867188 C 137.179688 143.867188 140.976562 147.664062 144.773438 143.867188 L 148.570312 140.074219 C 148.570312 140.074219 152.363281 136.277344 148.570312 132.480469 L 148.273438 132.183594 C 151.195312 129.363281 155.570312 126.492188 159.957031 128.683594 L 175.140625 113.503906 C 175.140625 113.503906 171.34375 102.113281 178.933594 94.523438 C 186.527344 86.933594 190.320312 86.933594 197.914062 86.933594 C 205.503906 86.933594 201.710938 83.136719 201.710938 83.136719 Z M 201.710938 83.136719 " fill-opacity="1" fill-rule="nonzero"/><g fill="#ffffff" fill-opacity="1"><g transform="translate(54.704184, 294.869395)"><g><path d="M 15.109375 0.5625 C 11.785156 0.5625 9.867188 -1.425781 9.359375 -5.40625 L 8.109375 0 L -4.375 0 L 9.5 -59.9375 L 21.984375 -59.9375 L 19.28125 -48.359375 C 21.6875 -50.347656 24.179688 -51.34375 26.765625 -51.34375 C 30.703125 -51.34375 33.257812 -50.171875 34.4375 -47.828125 C 35.613281 -45.492188 35.695312 -42.128906 34.6875 -37.734375 L 28.984375 -13.25 C 28.066406 -9.082031 26.425781 -5.738281 24.0625 -3.21875 C 21.707031 -0.695312 18.722656 0.5625 15.109375 0.5625 Z M 13.25 -8.875 C 14.082031 -8.875 14.726562 -9.140625 15.1875 -9.671875 C 15.644531 -10.203125 16 -10.875 16.25 -11.6875 C 16.507812 -12.5 16.847656 -13.757812 17.265625 -15.46875 L 22.125 -36.625 C 22.539062 -38.425781 22.691406 -39.765625 22.578125 -40.640625 C 22.460938 -41.523438 21.875 -41.96875 20.8125 -41.96875 C 19.65625 -41.96875 18.765625 -41.523438 18.140625 -40.640625 C 17.515625 -39.765625 17.015625 -38.472656 16.640625 -36.765625 L 11.71875 -15.46875 C 11.207031 -13.25 11.007812 -11.59375 11.125 -10.5 C 11.238281 -9.414062 11.945312 -8.875 13.25 -8.875 Z M 13.25 -8.875 "/></g></g></g><g fill="#ffffff" fill-opacity="1"><g transform="translate(92.375271, 294.869395)"><g><path d="M 7.6875 -54.1875 L 9.640625 -62.640625 L 21.78125 -62.640625 L 19.828125 -54.1875 Z M -4.796875 0 L 6.9375 -50.78125 L 19.078125 -50.78125 L 7.34375 0 Z M -4.796875 0 "/></g></g></g><g fill="#ffffff" fill-opacity="1"><g transform="translate(112.147617, 294.869395)"><g><path d="M 11.296875 0.5625 C 1.171875 0.5625 -2.6875 -4.6875 -0.28125 -15.1875 L 4.4375 -35.59375 C 5.539062 -40.394531 7.769531 -44.21875 11.125 -47.0625 C 14.476562 -49.914062 18.515625 -51.34375 23.234375 -51.34375 C 27.953125 -51.34375 31.335938 -49.914062 33.390625 -47.0625 C 35.453125 -44.21875 35.925781 -40.394531 34.8125 -35.59375 L 30.109375 -15.1875 C 27.703125 -4.6875 21.429688 0.5625 11.296875 0.5625 Z M 13.453125 -8.8125 C 14.421875 -8.8125 15.21875 -9.15625 15.84375 -9.84375 C 16.46875 -10.539062 16.921875 -11.492188 17.203125 -12.703125 L 22.890625 -37.53125 C 23.578125 -40.488281 22.972656 -41.96875 21.078125 -41.96875 C 19.179688 -41.96875 17.890625 -40.488281 17.203125 -37.53125 L 11.515625 -12.703125 C 11.234375 -11.492188 11.242188 -10.539062 11.546875 -9.84375 C 11.847656 -9.15625 12.484375 -8.8125 13.453125 -8.8125 Z M 13.453125 -8.8125 "/></g></g></g><g fill="#ffffff" fill-opacity="1"><g transform="translate(149.541207, 294.869395)"><g><path d="M 0.6875 0 L 3.046875 -10.125 L 15.1875 -10.125 L 12.828125 0 Z M 0.6875 0 "/></g></g></g><g fill="#ffffff" fill-opacity="1"><g transform="translate(168.342303, 294.869395)"><g><path d="M 6.03125 0.5625 C 2.832031 0.5625 0.785156 -0.109375 -0.109375 -1.453125 C -1.015625 -2.796875 -1.117188 -4.945312 -0.421875 -7.90625 L 6.9375 -39.609375 L 3.53125 -39.609375 L 5.609375 -48.84375 L 9.015625 -48.84375 L 11.515625 -59.59375 L 23.296875 -59.59375 L 20.8125 -48.84375 L 24.28125 -48.84375 L 22.1875 -39.609375 L 18.71875 -39.609375 L 12.140625 -11.09375 C 11.898438 -10.21875 11.800781 -9.570312 11.84375 -9.15625 C 11.894531 -8.738281 12.222656 -8.53125 12.828125 -8.53125 C 13.285156 -8.53125 13.734375 -8.550781 14.171875 -8.59375 C 14.617188 -8.644531 14.910156 -8.671875 15.046875 -8.671875 L 13.109375 -0.34375 C 12.367188 -0.15625 11.316406 0.0390625 9.953125 0.25 C 8.585938 0.457031 7.28125 0.5625 6.03125 0.5625 Z M 6.03125 0.5625 "/></g></g></g><g fill="#ffffff" fill-opacity="1"><g transform="translate(192.415899, 294.869395)"><g><path d="M 11.296875 0.5625 C 1.171875 0.5625 -2.6875 -4.6875 -0.28125 -15.1875 L 4.4375 -35.59375 C 5.539062 -40.394531 7.769531 -44.21875 11.125 -47.0625 C 14.476562 -49.914062 18.515625 -51.34375 23.234375 -51.34375 C 27.953125 -51.34375 31.335938 -49.914062 33.390625 -47.0625 C 35.453125 -44.21875 35.925781 -40.394531 34.8125 -35.59375 L 30.109375 -15.1875 C 27.703125 -4.6875 21.429688 0.5625 11.296875 0.5625 Z M 13.453125 -8.8125 C 14.421875 -8.8125 15.21875 -9.15625 15.84375 -9.84375 C 16.46875 -10.539062 16.921875 -11.492188 17.203125 -12.703125 L 22.890625 -37.53125 C 23.578125 -40.488281 22.972656 -41.96875 21.078125 -41.96875 C 19.179688 -41.96875 17.890625 -40.488281 17.203125 -37.53125 L 11.515625 -12.703125 C 11.234375 -11.492188 11.242188 -10.539062 11.546875 -9.84375 C 11.847656 -9.15625 12.484375 -8.8125 13.453125 -8.8125 Z M 13.453125 -8.8125 "/></g></g></g><g fill="#ffffff" fill-opacity="1"><g transform="translate(229.809489, 294.869395)"><g><path d="M 11.296875 0.5625 C 1.171875 0.5625 -2.6875 -4.6875 -0.28125 -15.1875 L 4.4375 -35.59375 C 5.539062 -40.394531 7.769531 -44.21875 11.125 -47.0625 C 14.476562 -49.914062 18.515625 -51.34375 23.234375 -51.34375 C 27.953125 -51.34375 31.335938 -49.914062 33.390625 -47.0625 C 35.453125 -44.21875 35.925781 -40.394531 34.8125 -35.59375 L 30.109375 -15.1875 C 27.703125 -4.6875 21.429688 0.5625 11.296875 0.5625 Z M 13.453125 -8.8125 C 14.421875 -8.8125 15.21875 -9.15625 15.84375 -9.84375 C 16.46875 -10.539062 16.921875 -11.492188 17.203125 -12.703125 L 22.890625 -37.53125 C 23.578125 -40.488281 22.972656 -41.96875 21.078125 -41.96875 C 19.179688 -41.96875 17.890625 -40.488281 17.203125 -37.53125 L 11.515625 -12.703125 C 11.234375 -11.492188 11.242188 -10.539062 11.546875 -9.84375 C 11.847656 -9.15625 12.484375 -8.8125 13.453125 -8.8125 Z M 13.453125 -8.8125 "/></g></g></g><g fill="#ffffff" fill-opacity="1"><g transform="translate(267.20308, 294.869395)"><g><path d="M -4.453125 0 L 9.421875 -59.9375 L 21.78125 -59.9375 L 7.90625 0 Z M -4.453125 0 "/></g></g></g><g fill="#ffffff" fill-opacity="1"><g transform="translate(287.322296, 294.869395)"><g><path d="M 10.46875 0.5625 C 0.4375 0.5625 -3.421875 -4.523438 -1.109375 -14.703125 L -0.078125 -18.734375 L 12.0625 -18.734375 L 10.75 -12.765625 C 10.46875 -11.566406 10.488281 -10.65625 10.8125 -10.03125 C 11.132812 -9.40625 11.828125 -9.09375 12.890625 -9.09375 C 14.515625 -9.09375 15.628906 -10.410156 16.234375 -13.046875 C 16.691406 -14.984375 16.664062 -16.503906 16.15625 -17.609375 C 15.644531 -18.722656 14.695312 -19.90625 13.3125 -21.15625 L 8.046875 -26.15625 C 6.191406 -27.863281 4.984375 -29.628906 4.421875 -31.453125 C 3.867188 -33.285156 3.988281 -35.867188 4.78125 -39.203125 C 5.382812 -41.785156 6.578125 -43.988281 8.359375 -45.8125 C 10.140625 -47.644531 12.265625 -49.023438 14.734375 -49.953125 C 17.210938 -50.878906 19.835938 -51.34375 22.609375 -51.34375 C 32.460938 -51.34375 36.253906 -46.4375 33.984375 -36.625 L 33.78125 -35.65625 L 21.21875 -35.65625 L 21.703125 -37.59375 C 21.984375 -38.800781 22.019531 -39.832031 21.8125 -40.6875 C 21.601562 -41.539062 21.035156 -41.96875 20.109375 -41.96875 C 19.273438 -41.96875 18.582031 -41.722656 18.03125 -41.234375 C 17.476562 -40.753906 17.109375 -40.097656 16.921875 -39.265625 C 16.503906 -37.410156 16.894531 -35.976562 18.09375 -34.96875 L 24.34375 -29.484375 C 26.5625 -27.492188 28.109375 -25.332031 28.984375 -23 C 29.867188 -20.664062 29.914062 -17.71875 29.125 -14.15625 C 28.019531 -9.4375 25.835938 -5.800781 22.578125 -3.25 C 19.316406 -0.707031 15.28125 0.5625 10.46875 0.5625 Z M 10.46875 0.5625 "/></g></g></g></svg>