<svg xmlns="http://www.w3.org/2000/svg" xmlns:xlink="http://www.w3.org/1999/xlink" width="500" zoomAndPan="magnify" viewBox="0 0 375 374.999991" height="500" preserveAspectRatio="xMidYMid meet" version="1.0"><defs><g/><clipPath id="3ffd594cec"><path d="M 103.214844 56.140625 L 271.964844 56.140625 L 271.964844 220.390625 L 103.214844 220.390625 Z M 103.214844 56.140625 " clip-rule="nonzero"/></clipPath></defs><g clip-path="url(#3ffd594cec)"><path fill="#f47d20" d="M 124.3125 56.140625 L 122.207031 60.351562 L 144.320312 72.988281 C 144.320312 83.519531 140.109375 91.941406 130.632812 97.207031 L 108.515625 84.570312 L 107.464844 86.675781 C 112.730469 102.472656 123.261719 113.003906 144.320312 113.003906 C 149.585938 113.003906 165.382812 128.796875 173.804688 137.222656 L 190.652344 120.375 C 182.230469 111.949219 163.273438 92.996094 163.273438 87.730469 C 163.273438 68.773438 158.011719 56.140625 124.3125 56.140625 Z M 255.941406 61.402344 L 234.882812 76.148438 L 232.777344 84.570312 L 171.699219 145.648438 L 163.273438 140.382812 L 159.0625 144.59375 C 159.0625 157.230469 144.320312 163.546875 138.003906 163.546875 L 103.253906 198.296875 C 103.253906 208.828125 114.835938 220.414062 125.367188 220.414062 L 160.117188 185.664062 C 160.117188 179.34375 166.433594 164.601562 179.070312 164.601562 L 183.28125 160.390625 L 178.019531 151.964844 L 239.09375 90.890625 L 247.519531 88.78125 L 262.261719 67.722656 Z M 203.289062 133.011719 L 186.441406 149.859375 C 199.078125 162.496094 215.925781 179.34375 215.925781 184.609375 C 215.925781 203.5625 221.191406 216.199219 254.890625 216.199219 L 256.996094 211.988281 L 234.882812 199.351562 C 234.882812 188.820312 239.09375 180.398438 248.570312 175.132812 L 270.683594 187.769531 L 271.738281 185.664062 C 266.472656 169.867188 255.941406 159.335938 234.882812 159.335938 C 229.617188 159.335938 215.925781 145.648438 203.289062 133.011719 Z M 203.289062 133.011719 " fill-opacity="1" fill-rule="nonzero"/></g><g fill="#f47d20" fill-opacity="1"><g transform="translate(23.762477, 320.566881)"><g><path d="M 27.203125 0.6875 C 23.097656 0.6875 20.160156 -1.765625 18.390625 -6.671875 L 18.390625 0 L 3 0 L 3 -73.90625 L 18.390625 -73.90625 L 18.390625 -59.625 C 20.785156 -62.082031 23.582031 -63.3125 26.78125 -63.3125 C 31.625 -63.3125 35.097656 -61.867188 37.203125 -58.984375 C 39.316406 -56.109375 40.375 -51.957031 40.375 -46.53125 L 40.375 -16.34375 C 40.375 -11.207031 39.289062 -7.082031 37.125 -3.96875 C 34.957031 -0.863281 31.648438 0.6875 27.203125 0.6875 Z M 22.15625 -10.953125 C 23.1875 -10.953125 23.914062 -11.28125 24.34375 -11.9375 C 24.769531 -12.59375 25.023438 -13.414062 25.109375 -14.40625 C 25.191406 -15.40625 25.234375 -16.960938 25.234375 -19.078125 L 25.234375 -45.171875 C 25.234375 -47.390625 25.03125 -49.039062 24.625 -50.125 C 24.226562 -51.207031 23.378906 -51.75 22.078125 -51.75 C 20.648438 -51.75 19.675781 -51.207031 19.15625 -50.125 C 18.644531 -49.039062 18.390625 -47.445312 18.390625 -45.34375 L 18.390625 -19.078125 C 18.390625 -16.335938 18.617188 -14.296875 19.078125 -12.953125 C 19.535156 -11.617188 20.5625 -10.953125 22.15625 -10.953125 Z M 22.15625 -10.953125 "/></g></g></g><g fill="#f47d20" fill-opacity="1"><g transform="translate(70.212492, 320.566881)"><g><path d="M 2.90625 -66.8125 L 2.90625 -77.25 L 17.875 -77.25 L 17.875 -66.8125 Z M 2.90625 0 L 2.90625 -62.625 L 17.875 -62.625 L 17.875 0 Z M 2.90625 0 "/></g></g></g><g fill="#f47d20" fill-opacity="1"><g transform="translate(94.592613, 320.566881)"><g><path d="M 21.21875 0.6875 C 8.726562 0.6875 2.484375 -5.785156 2.484375 -18.734375 L 2.484375 -43.890625 C 2.484375 -49.816406 4.148438 -54.535156 7.484375 -58.046875 C 10.816406 -61.554688 15.394531 -63.3125 21.21875 -63.3125 C 27.03125 -63.3125 31.601562 -61.554688 34.9375 -58.046875 C 38.28125 -54.535156 39.953125 -49.816406 39.953125 -43.890625 L 39.953125 -18.734375 C 39.953125 -5.785156 33.707031 0.6875 21.21875 0.6875 Z M 21.21875 -10.859375 C 22.414062 -10.859375 23.296875 -11.285156 23.859375 -12.140625 C 24.429688 -13.003906 24.71875 -14.175781 24.71875 -15.65625 L 24.71875 -46.28125 C 24.71875 -49.925781 23.550781 -51.75 21.21875 -51.75 C 18.875 -51.75 17.703125 -49.925781 17.703125 -46.28125 L 17.703125 -15.65625 C 17.703125 -14.175781 17.988281 -13.003906 18.5625 -12.140625 C 19.132812 -11.285156 20.019531 -10.859375 21.21875 -10.859375 Z M 21.21875 -10.859375 "/></g></g></g><g fill="#f47d20" fill-opacity="1"><g transform="translate(140.700454, 320.566881)"><g><path d="M 2.3125 0 L 2.3125 -12.484375 L 17.28125 -12.484375 L 17.28125 0 Z M 2.3125 0 "/></g></g></g><g fill="#f47d20" fill-opacity="1"><g transform="translate(163.882987, 320.566881)"><g><path d="M 15.90625 0.6875 C 11.976562 0.6875 9.269531 -0.140625 7.78125 -1.796875 C 6.300781 -3.453125 5.5625 -6.101562 5.5625 -9.75 L 5.5625 -48.84375 L 1.375 -48.84375 L 1.375 -60.21875 L 5.5625 -60.21875 L 5.5625 -73.484375 L 20.109375 -73.484375 L 20.109375 -60.21875 L 24.375 -60.21875 L 24.375 -48.84375 L 20.109375 -48.84375 L 20.109375 -13.6875 C 20.109375 -12.601562 20.191406 -11.800781 20.359375 -11.28125 C 20.523438 -10.769531 20.984375 -10.515625 21.734375 -10.515625 C 22.296875 -10.515625 22.832031 -10.539062 23.34375 -10.59375 C 23.863281 -10.65625 24.207031 -10.6875 24.375 -10.6875 L 24.375 -0.421875 C 23.519531 -0.191406 22.28125 0.046875 20.65625 0.296875 C 19.03125 0.554688 17.445312 0.6875 15.90625 0.6875 Z M 15.90625 0.6875 "/></g></g></g><g fill="#f47d20" fill-opacity="1"><g transform="translate(193.566722, 320.566881)"><g><path d="M 21.21875 0.6875 C 8.726562 0.6875 2.484375 -5.785156 2.484375 -18.734375 L 2.484375 -43.890625 C 2.484375 -49.816406 4.148438 -54.535156 7.484375 -58.046875 C 10.816406 -61.554688 15.394531 -63.3125 21.21875 -63.3125 C 27.03125 -63.3125 31.601562 -61.554688 34.9375 -58.046875 C 38.28125 -54.535156 39.953125 -49.816406 39.953125 -43.890625 L 39.953125 -18.734375 C 39.953125 -5.785156 33.707031 0.6875 21.21875 0.6875 Z M 21.21875 -10.859375 C 22.414062 -10.859375 23.296875 -11.285156 23.859375 -12.140625 C 24.429688 -13.003906 24.71875 -14.175781 24.71875 -15.65625 L 24.71875 -46.28125 C 24.71875 -49.925781 23.550781 -51.75 21.21875 -51.75 C 18.875 -51.75 17.703125 -49.925781 17.703125 -46.28125 L 17.703125 -15.65625 C 17.703125 -14.175781 17.988281 -13.003906 18.5625 -12.140625 C 19.132812 -11.285156 20.019531 -10.859375 21.21875 -10.859375 Z M 21.21875 -10.859375 "/></g></g></g><g fill="#f47d20" fill-opacity="1"><g transform="translate(239.674563, 320.566881)"><g><path d="M 21.21875 0.6875 C 8.726562 0.6875 2.484375 -5.785156 2.484375 -18.734375 L 2.484375 -43.890625 C 2.484375 -49.816406 4.148438 -54.535156 7.484375 -58.046875 C 10.816406 -61.554688 15.394531 -63.3125 21.21875 -63.3125 C 27.03125 -63.3125 31.601562 -61.554688 34.9375 -58.046875 C 38.28125 -54.535156 39.953125 -49.816406 39.953125 -43.890625 L 39.953125 -18.734375 C 39.953125 -5.785156 33.707031 0.6875 21.21875 0.6875 Z M 21.21875 -10.859375 C 22.414062 -10.859375 23.296875 -11.285156 23.859375 -12.140625 C 24.429688 -13.003906 24.71875 -14.175781 24.71875 -15.65625 L 24.71875 -46.28125 C 24.71875 -49.925781 23.550781 -51.75 21.21875 -51.75 C 18.875 -51.75 17.703125 -49.925781 17.703125 -46.28125 L 17.703125 -15.65625 C 17.703125 -14.175781 17.988281 -13.003906 18.5625 -12.140625 C 19.132812 -11.285156 20.019531 -10.859375 21.21875 -10.859375 Z M 21.21875 -10.859375 "/></g></g></g><g fill="#f47d20" fill-opacity="1"><g transform="translate(285.782404, 320.566881)"><g><path d="M 3 0 L 3 -73.90625 L 18.21875 -73.90625 L 18.21875 0 Z M 3 0 "/></g></g></g><g fill="#f47d20" fill-opacity="1"><g transform="translate(310.590243, 320.566881)"><g><path d="M 20.1875 0.6875 C 7.8125 0.6875 1.625 -5.585938 1.625 -18.140625 L 1.71875 -23.09375 L 16.6875 -23.09375 L 16.765625 -15.734375 C 16.765625 -14.253906 17.050781 -13.128906 17.625 -12.359375 C 18.195312 -11.585938 19.140625 -11.203125 20.453125 -11.203125 C 22.441406 -11.203125 23.4375 -12.828125 23.4375 -16.078125 C 23.4375 -18.472656 22.960938 -20.351562 22.015625 -21.71875 C 21.078125 -23.09375 19.582031 -24.550781 17.53125 -26.09375 L 9.578125 -32.25 C 6.835938 -34.363281 4.867188 -36.546875 3.671875 -38.796875 C 2.472656 -41.046875 1.875 -44.222656 1.875 -48.328125 C 1.875 -51.523438 2.710938 -54.25 4.390625 -56.5 C 6.078125 -58.757812 8.316406 -60.457031 11.109375 -61.59375 C 13.910156 -62.738281 17.023438 -63.3125 20.453125 -63.3125 C 32.597656 -63.3125 38.671875 -57.265625 38.671875 -45.171875 L 38.671875 -43.96875 L 23.1875 -43.96875 L 23.1875 -46.359375 C 23.1875 -47.847656 22.941406 -49.117188 22.453125 -50.171875 C 21.972656 -51.222656 21.160156 -51.75 20.015625 -51.75 C 18.992188 -51.75 18.210938 -51.445312 17.671875 -50.84375 C 17.128906 -50.25 16.859375 -49.441406 16.859375 -48.421875 C 16.859375 -46.140625 17.738281 -44.367188 19.5 -43.109375 L 28.75 -36.359375 C 32.050781 -33.898438 34.585938 -31.226562 36.359375 -28.34375 C 38.128906 -25.46875 39.015625 -21.835938 39.015625 -17.453125 C 39.015625 -11.628906 37.359375 -7.148438 34.046875 -4.015625 C 30.742188 -0.878906 26.125 0.6875 20.1875 0.6875 Z M 20.1875 0.6875 "/></g></g></g></svg>